<mxfile host="app.diagrams.net" agent="Mozilla/5.0 (Windows NT 10.0; Win64; x64) AppleWebKit/537.36 (KHTML, like Gecko) Chrome/138.0.0.0 Safari/537.36 Edg/138.0.0.0" version="28.0.7">
  <diagram name="Use Case - Circular Full View" id="0">
    <mxGraphModel dx="2315" dy="1036" grid="1" gridSize="10" guides="1" tooltips="1" connect="1" arrows="1" fold="1" page="1" pageScale="1" pageWidth="1200" pageHeight="1600" math="0" shadow="0">
      <root>
        <mxCell id="0" />
        <mxCell id="1" parent="0" />
        <mxCell id="system" value="NỀN TẢNG ĐẶT LỊCH NHA KHOA" style="ellipse;whiteSpace=wrap;html=1;aspect=fixed;fillColor=#E8F6F3;fontSize=14;fontStyle=1;strokeColor=#2C3E50;" parent="1" vertex="1">
          <mxGeometry x="480" y="350" width="220" height="100" as="geometry" />
        </mxCell>
        <mxCell id="guest" value="Guest" style="shape=uml.actor;" parent="1" vertex="1">
          <mxGeometry x="80" y="100" width="60" height="40" as="geometry" />
        </mxCell>
        <mxCell id="customer" value="Customer" style="shape=uml.actor;" parent="1" vertex="1">
          <mxGeometry x="50" y="600" width="60" height="50" as="geometry" />
        </mxCell>
        <mxCell id="dentist" value="Dentist" style="shape=uml.actor;" parent="1" vertex="1">
          <mxGeometry x="1070" y="170" width="60" height="40" as="geometry" />
        </mxCell>
        <mxCell id="owner" value="Clinic Owner" style="shape=uml.actor;" parent="1" vertex="1">
          <mxGeometry x="1050" y="530" width="80" height="50" as="geometry" />
        </mxCell>
        <mxCell id="admin" value="System Admin" style="shape=uml.actor;" parent="1" vertex="1">
          <mxGeometry x="1050" y="800" width="90" height="40" as="geometry" />
        </mxCell>
        <mxCell id="201" value="Xác thực" style="ellipse;whiteSpace=wrap;html=1;" parent="1" vertex="1">
          <mxGeometry x="370" y="120" width="180" height="40" as="geometry" />
        </mxCell>
        <mxCell id="202" value="Xem lịch khám" style="ellipse;whiteSpace=wrap;html=1;" parent="1" vertex="1">
          <mxGeometry x="260" y="200" width="180" height="40" as="geometry" />
        </mxCell>
        <mxCell id="203" value="Đăng ký tài khoản" style="ellipse;whiteSpace=wrap;html=1;dashed=1;" parent="1" vertex="1">
          <mxGeometry x="170" y="340" width="180" height="40" as="geometry" />
        </mxCell>
        <mxCell id="204" value="Đặt lịch khám" style="ellipse;whiteSpace=wrap;html=1;" parent="1" vertex="1">
          <mxGeometry x="270" y="480" width="180" height="40" as="geometry" />
        </mxCell>
        <mxCell id="205" value="Nhận kết quả khám" style="ellipse;whiteSpace=wrap;html=1;" parent="1" vertex="1">
          <mxGeometry x="520" y="600" width="180" height="40" as="geometry" />
        </mxCell>
        <mxCell id="206" value="Đăng ký điều trị định kỳ" style="ellipse;whiteSpace=wrap;html=1;dashed=1;" parent="1" vertex="1">
          <mxGeometry x="300" y="690" width="180" height="90" as="geometry" />
        </mxCell>
        <mxCell id="207" value="Tạo lịch điều trị định kỳ" style="ellipse;whiteSpace=wrap;html=1;" parent="1" vertex="1">
          <mxGeometry x="760" y="340" width="180" height="40" as="geometry" />
        </mxCell>
        <mxCell id="208" value="Gửi kết quả khám" style="ellipse;whiteSpace=wrap;html=1;" parent="1" vertex="1">
          <mxGeometry x="750" y="280" width="150" height="30" as="geometry" />
        </mxCell>
        <mxCell id="209" value="Chat với bệnh nhân" style="ellipse;whiteSpace=wrap;html=1;" parent="1" vertex="1">
          <mxGeometry x="580" y="180" width="180" height="40" as="geometry" />
        </mxCell>
        <mxCell id="210" value="Xét duyệt thông tin phòng khám" style="ellipse;whiteSpace=wrap;html=1;" parent="1" vertex="1">
          <mxGeometry x="770" y="440" width="180" height="40" as="geometry" />
        </mxCell>
        <mxCell id="211" value="Xét duyệt tài khoản nha sĩ" style="ellipse;whiteSpace=wrap;html=1;" parent="1" vertex="1">
          <mxGeometry x="760" y="650" width="180" height="40" as="geometry" />
        </mxCell>
        <mxCell id="212" value="Quản lý tài khoản" style="ellipse;whiteSpace=wrap;html=1;" parent="1" vertex="1">
          <mxGeometry x="600" y="740" width="180" height="40" as="geometry" />
        </mxCell>
        <mxCell id="e201" style="endArrow=none;" parent="1" source="system" target="201" edge="1">
          <mxGeometry relative="1" as="geometry" />
        </mxCell>
        <mxCell id="e202" style="endArrow=none;" parent="1" source="system" target="202" edge="1">
          <mxGeometry relative="1" as="geometry" />
        </mxCell>
        <mxCell id="e203" style="endArrow=none;dashed=1;" parent="1" source="system" target="203" edge="1">
          <mxGeometry relative="1" as="geometry" />
        </mxCell>
        <mxCell id="e204" style="endArrow=none;" parent="1" source="system" target="204" edge="1">
          <mxGeometry relative="1" as="geometry" />
        </mxCell>
        <mxCell id="e205" style="endArrow=none;" parent="1" source="system" target="205" edge="1">
          <mxGeometry relative="1" as="geometry" />
        </mxCell>
        <mxCell id="e206" style="endArrow=none;dashed=1;" parent="1" source="system" target="206" edge="1">
          <mxGeometry relative="1" as="geometry" />
        </mxCell>
        <mxCell id="e207" style="endArrow=none;" parent="1" source="system" target="207" edge="1">
          <mxGeometry relative="1" as="geometry" />
        </mxCell>
        <mxCell id="e208" style="endArrow=none;" parent="1" source="system" target="208" edge="1">
          <mxGeometry relative="1" as="geometry" />
        </mxCell>
        <mxCell id="e209" style="endArrow=none;" parent="1" source="system" target="209" edge="1">
          <mxGeometry relative="1" as="geometry" />
        </mxCell>
        <mxCell id="e210" style="endArrow=none;" parent="1" source="system" target="210" edge="1">
          <mxGeometry relative="1" as="geometry" />
        </mxCell>
        <mxCell id="ea210" style="endArrow=none;" parent="1" source="admin" target="210" edge="1">
          <mxGeometry relative="1" as="geometry" />
        </mxCell>
        <mxCell id="e211" style="endArrow=none;" parent="1" source="system" target="211" edge="1">
          <mxGeometry relative="1" as="geometry" />
        </mxCell>
        <mxCell id="ea211" style="endArrow=none;" parent="1" source="admin" target="211" edge="1">
          <mxGeometry relative="1" as="geometry" />
        </mxCell>
        <mxCell id="e212" style="endArrow=none;" parent="1" source="system" target="212" edge="1">
          <mxGeometry relative="1" as="geometry" />
        </mxCell>
        <mxCell id="ea212" style="endArrow=none;" parent="1" source="admin" target="212" edge="1">
          <mxGeometry relative="1" as="geometry" />
        </mxCell>
        <mxCell id="actorconn0" style="endArrow=none;" parent="1" source="guest" target="201" edge="1">
          <mxGeometry relative="1" as="geometry" />
        </mxCell>
        <mxCell id="actorconn1" style="endArrow=none;" parent="1" source="guest" target="202" edge="1">
          <mxGeometry relative="1" as="geometry" />
        </mxCell>
        <mxCell id="actorconn2" style="endArrow=none;" parent="1" source="guest" target="203" edge="1">
          <mxGeometry relative="1" as="geometry" />
        </mxCell>
        <mxCell id="actorconn3" style="endArrow=none;" parent="1" source="customer" target="204" edge="1">
          <mxGeometry relative="1" as="geometry" />
        </mxCell>
        <mxCell id="actorconn4" style="endArrow=none;" parent="1" source="customer" target="205" edge="1">
          <mxGeometry relative="1" as="geometry" />
        </mxCell>
        <mxCell id="actorconn5" style="endArrow=none;" parent="1" source="customer" target="206" edge="1">
          <mxGeometry relative="1" as="geometry" />
        </mxCell>
        <mxCell id="actorconn6" style="endArrow=none;" parent="1" source="customer" target="209" edge="1">
          <mxGeometry relative="1" as="geometry" />
        </mxCell>
        <mxCell id="actorconn7" style="endArrow=none;" parent="1" source="dentist" target="207" edge="1">
          <mxGeometry relative="1" as="geometry" />
        </mxCell>
        <mxCell id="actorconn8" style="endArrow=none;" parent="1" source="dentist" target="208" edge="1">
          <mxGeometry relative="1" as="geometry" />
        </mxCell>
        <mxCell id="actorconn9" style="endArrow=none;" parent="1" source="dentist" target="209" edge="1">
          <mxGeometry relative="1" as="geometry" />
        </mxCell>
        <mxCell id="actorconn10" style="endArrow=none;" parent="1" source="owner" target="210" edge="1">
          <mxGeometry relative="1" as="geometry" />
        </mxCell>
        <mxCell id="fmplRH7FEcCIADICSRig-212" style="edgeStyle=orthogonalEdgeStyle;rounded=0;orthogonalLoop=1;jettySize=auto;html=1;exitX=0;exitY=0.5;exitDx=0;exitDy=0;entryX=0;entryY=0.75;entryDx=0;entryDy=0;" edge="1" parent="1" source="customer" target="customer">
          <mxGeometry relative="1" as="geometry" />
        </mxCell>
        <mxCell id="fmplRH7FEcCIADICSRig-213" value="" style="shape=umlActor;verticalLabelPosition=bottom;verticalAlign=top;html=1;outlineConnect=0;" vertex="1" parent="1">
          <mxGeometry x="95" y="40" width="30" height="60" as="geometry" />
        </mxCell>
        <mxCell id="fmplRH7FEcCIADICSRig-215" value="" style="shape=umlActor;verticalLabelPosition=bottom;verticalAlign=top;html=1;outlineConnect=0;" vertex="1" parent="1">
          <mxGeometry x="65" y="540" width="30" height="60" as="geometry" />
        </mxCell>
        <mxCell id="fmplRH7FEcCIADICSRig-216" value="" style="shape=umlActor;verticalLabelPosition=bottom;verticalAlign=top;html=1;outlineConnect=0;" vertex="1" parent="1">
          <mxGeometry x="1085" y="110" width="30" height="60" as="geometry" />
        </mxCell>
        <mxCell id="fmplRH7FEcCIADICSRig-217" value="" style="shape=umlActor;verticalLabelPosition=bottom;verticalAlign=top;html=1;outlineConnect=0;" vertex="1" parent="1">
          <mxGeometry x="1070" y="470" width="30" height="60" as="geometry" />
        </mxCell>
        <mxCell id="fmplRH7FEcCIADICSRig-218" value="" style="shape=umlActor;verticalLabelPosition=bottom;verticalAlign=top;html=1;outlineConnect=0;" vertex="1" parent="1">
          <mxGeometry x="1085" y="740" width="30" height="60" as="geometry" />
        </mxCell>
        <mxCell id="fmplRH7FEcCIADICSRig-219" value="" style="swimlane;startSize=0;" vertex="1" parent="1">
          <mxGeometry x="170" y="50" width="820" height="830" as="geometry" />
        </mxCell>
        <mxCell id="fmplRH7FEcCIADICSRig-220" value="USE-CASE" style="swimlane;whiteSpace=wrap;html=1;" vertex="1" parent="1">
          <mxGeometry x="170" y="50" width="820" height="830" as="geometry" />
        </mxCell>
      </root>
    </mxGraphModel>
  </diagram>
</mxfile>
